<?xml version="1.0" encoding="UTF-8" standalone="no"?><!-- Generator: Gravit.io --><svg xmlns="http://www.w3.org/2000/svg" xmlns:xlink="http://www.w3.org/1999/xlink" style="isolation:isolate" viewBox="0 0 512 512" width="512pt" height="512pt"><defs><clipPath id="_clipPath_ger8GP3hoBAS4WvhbzUx7u6gPoeLhaiY"><rect width="512" height="512"/></clipPath></defs><g clip-path="url(#_clipPath_ger8GP3hoBAS4WvhbzUx7u6gPoeLhaiY)"><path d=" M 158 473.154 L 353 473.154 L 437 165 L 75 165 L 158 473.154 Z " fill="rgb(38,14,4)"/><rect x="62" y="128" width="396" height="37" transform="matrix(1,0,0,1,0,0)" fill="rgb(134,68,40)"/><rect x="65.668" y="0" width="34.595" height="512" transform="matrix(0.966,-0.259,0.259,0.966,-63.431,30.196)" fill="rgb(128,222,234)"/><rect x="132.515" y="473.154" width="246.969" height="34.6" transform="matrix(1,0,0,1,0,0)" fill="rgb(128,222,234)"/><rect x="411.737" y="0" width="34.595" height="512" transform="matrix(0.966,0.259,-0.259,0.966,80.877,-102.319)" fill="rgb(128,222,234)"/><path d=" M 33.416 4.246 L 62 128 L 445 128 L 478.584 4.246 L 33.416 4.246 Z " fill="rgb(128,222,234)" fill-opacity="0.7"/></g></svg>