<?xml version="1.0" encoding="UTF-8" standalone="no"?><!-- Generator: Gravit.io --><svg xmlns="http://www.w3.org/2000/svg" xmlns:xlink="http://www.w3.org/1999/xlink" style="isolation:isolate" viewBox="0 0 512 512" width="512pt" height="512pt"><defs><clipPath id="_clipPath_aOwSaFFeJWhYE5VGy7qspyBipRZw2LH6"><rect width="512" height="512"/></clipPath></defs><g clip-path="url(#_clipPath_aOwSaFFeJWhYE5VGy7qspyBipRZw2LH6)"><path d=" M 255.504 1.215 C 254.662 1.372 253.821 1.607 253.058 1.822 C 243.956 3.878 237.564 12.062 237.775 21.39 L 237.775 80.095 C 237.696 87.14 241.375 93.695 247.481 97.296 C 253.605 100.818 261.081 100.818 267.205 97.296 C 273.311 93.695 276.99 87.12 276.911 80.095 L 276.911 21.39 C 277.111 15.761 274.875 10.318 270.776 6.455 C 266.677 2.592 261.111 0.682 255.504 1.215 Z  M 136.88 33.014 C 130.413 33.946 124.836 38.042 122.011 43.935 C 119.186 49.828 119.486 56.741 122.811 62.366 L 152.163 113.733 C 157.584 123.204 169.579 126.492 179.07 121.071 C 188.541 115.631 191.828 103.656 186.408 94.165 L 157.055 42.798 C 153.059 35.616 144.994 31.705 136.88 33.014 Z  M 371.074 33.014 C 365.353 34.097 360.42 37.687 357.631 42.798 L 328.278 94.165 C 325.674 98.704 324.984 104.093 326.361 109.142 C 327.738 114.19 331.068 118.483 335.616 121.071 C 345.087 126.492 357.102 123.224 362.523 113.733 L 391.875 62.366 C 395.579 55.989 395.392 48.074 391.39 41.879 C 387.388 35.684 380.249 32.259 372.913 33.014 L 371.094 33.014 L 371.074 33.014 Z  M 459.758 118.625 C 459.134 118.793 458.52 118.995 457.918 119.232 C 455.541 119.619 453.258 120.449 451.187 121.678 L 399.82 151.031 C 390.349 156.451 387.061 168.446 392.482 177.937 C 397.922 187.408 409.898 190.696 419.388 185.275 L 470.755 155.923 C 479.93 152.049 484.732 141.903 481.911 132.352 C 479.09 122.801 469.545 116.892 459.738 118.625 L 459.758 118.625 Z  M 50.643 119.232 C 42.177 120.316 35.381 126.747 33.834 135.141 C 32.314 143.528 36.398 151.934 43.931 155.923 L 95.298 185.275 C 104.769 190.696 116.764 187.428 122.204 177.937 C 124.809 173.398 125.498 168.009 124.122 162.96 C 122.745 157.911 119.414 153.619 114.866 151.031 L 63.499 121.678 C 59.633 119.401 55.095 118.536 50.662 119.232 L 50.643 119.232 Z  M 257.343 119.232 C 181.672 119.232 120.365 180.54 120.365 256.21 C 120.365 331.881 181.672 393.189 257.343 393.189 C 333.014 393.189 394.321 331.881 394.321 256.21 C 394.321 180.54 333.014 119.232 257.343 119.232 Z  M 257.343 158.369 C 311.312 158.369 355.185 202.241 355.185 256.21 C 355.185 310.18 311.312 354.052 257.343 354.052 C 203.374 354.052 159.501 310.18 159.501 256.21 C 159.501 202.241 203.374 158.369 257.343 158.369 Z  M 17.024 236.642 C 6.242 238.168 -1.331 248.187 0.196 258.95 C 1.722 269.732 11.741 277.305 22.523 275.779 L 81.228 275.779 C 88.273 275.857 94.828 272.178 98.429 266.073 C 101.944 259.968 101.944 252.453 98.429 246.348 C 94.828 240.243 88.253 236.564 81.228 236.642 L 17.024 236.642 Z  M 427.959 236.642 C 417.177 238.168 409.604 248.187 411.13 258.95 C 412.657 269.732 422.676 277.305 433.458 275.779 L 492.163 275.779 C 499.207 275.857 505.763 272.178 509.363 266.073 C 512.879 259.968 512.879 252.453 509.363 246.348 C 505.763 240.243 499.188 236.564 492.163 236.642 L 427.959 236.642 Z  M 103.849 324.093 C 103.232 324.261 102.624 324.464 102.029 324.699 C 99.652 325.087 97.369 325.916 95.298 327.145 L 43.931 356.498 C 34.44 361.918 31.153 373.914 36.593 383.404 C 42.013 392.875 54.009 396.163 63.499 390.742 L 114.866 361.39 C 124.041 357.517 128.843 347.37 126.022 337.819 C 123.201 328.268 113.656 322.359 103.849 324.093 Z  M 406.551 324.699 C 398.078 325.775 391.273 332.208 389.723 340.608 C 388.203 348.995 392.287 357.401 399.82 361.39 L 451.187 390.742 C 460.677 396.163 472.673 392.895 478.093 383.404 C 480.698 378.865 481.388 373.476 480.011 368.428 C 478.634 363.379 475.303 359.086 470.755 356.498 L 419.388 327.145 C 415.522 324.868 410.985 324.003 406.551 324.699 Z  M 165.607 388.903 C 159.886 389.986 154.952 393.577 152.163 398.687 L 122.811 450.054 C 120.206 454.593 119.516 459.982 120.893 465.031 C 122.27 470.08 125.601 474.372 130.149 476.961 C 139.62 482.401 151.635 479.113 157.055 469.622 L 186.408 418.256 C 190.112 411.879 189.924 403.963 185.923 397.768 C 181.921 391.574 174.782 388.148 167.446 388.903 L 165.607 388.903 Z  M 342.348 388.903 C 335.88 389.835 330.303 393.931 327.478 399.824 C 324.654 405.717 324.954 412.63 328.278 418.256 L 357.631 469.622 C 363.051 479.113 375.046 482.401 384.537 476.961 C 394.008 471.54 397.296 459.545 391.875 450.054 L 362.523 398.687 C 358.526 391.506 350.462 387.594 342.348 388.903 Z  M 255.504 412.15 C 254.662 412.307 253.821 412.542 253.058 412.757 C 243.956 414.812 237.564 422.997 237.775 432.325 L 237.775 491.03 C 237.696 498.075 241.375 504.63 247.481 508.231 C 253.605 511.753 261.081 511.753 267.205 508.231 C 273.311 504.63 276.99 498.055 276.911 491.03 L 276.911 432.325 C 277.111 426.696 274.875 421.253 270.776 417.39 C 266.677 413.527 261.111 411.617 255.504 412.15 Z " fill="rgb(180,142,173)"/></g></svg>